<svg width="40" height="40" viewBox="0 0 40 40" fill="none" xmlns="http://www.w3.org/2000/svg">
<path d="M19.6687 10.8158L22.1447 8.33983C24.9325 5.55197 28.5823 4.39558 32.445 4.20662C33.9475 4.13312 34.6987 4.09637 35.301 4.69877C35.9035 5.30115 35.8667 6.05235 35.7932 7.55478C35.6042 11.4175 34.4478 15.0673 31.66 17.8551L29.184 20.3311C27.145 22.3701 26.5653 22.95 26.9933 25.1616C27.4158 26.8511 27.8247 28.4871 26.5962 29.7156C25.106 31.2058 23.7467 31.2058 22.2565 29.7156L10.2841 17.7433C8.79399 16.2531 8.79394 14.8938 10.2841 13.4036C11.5126 12.1751 13.1487 12.584 14.8381 13.0064C17.0498 13.4345 17.6297 12.8548 19.6687 10.8158Z" stroke="#7D2CE0" stroke-width="2.5" stroke-linejoin="round"/>
<path d="M28.3267 11.6666H28.3417" stroke="#7D2CE0" stroke-width="2" stroke-linecap="round" stroke-linejoin="round"/>
<path d="M4.1665 35.8333L12.4998 27.5" stroke="#7D2CE0" stroke-width="1.5" stroke-linecap="round"/>
<path d="M14.1665 35.8333L17.4998 32.5" stroke="#7D2CE0" stroke-width="1.5" stroke-linecap="round"/>
<path d="M4.1665 25.8333L7.49984 22.5" stroke="#7D2CE0" stroke-width="1.5" stroke-linecap="round"/>
</svg>
