<svg width="40" height="40" viewBox="0 0 40 40" fill="none" xmlns="http://www.w3.org/2000/svg">
<path d="M19.9998 13.3334C27.3636 13.3334 33.3332 11.0948 33.3332 8.33337C33.3332 5.57195 27.3636 3.33337 19.9998 3.33337C12.636 3.33337 6.6665 5.57195 6.6665 8.33337C6.6665 11.0948 12.636 13.3334 19.9998 13.3334Z" stroke="#7D2CE0" stroke-width="2.5"/>
<path d="M33.3332 20C33.3332 22.7615 27.3637 25 19.9998 25C12.636 25 6.6665 22.7615 6.6665 20" stroke="#7D2CE0" stroke-width="2.5"/>
<path d="M33.3332 8.33337V31.6667C33.3332 34.4282 27.3637 36.6667 19.9998 36.6667C12.636 36.6667 6.6665 34.4282 6.6665 31.6667V8.33337" stroke="#7D2CE0" stroke-width="2.5"/>
<path d="M13.3335 13.3334V16.6667" stroke="#7D2CE0" stroke-width="2.5" stroke-linecap="round"/>
<path d="M13.3335 25V28.3333" stroke="#7D2CE0" stroke-width="2.5" stroke-linecap="round"/>
</svg>
