<svg width="40" height="40" viewBox="0 0 40 40" fill="none" xmlns="http://www.w3.org/2000/svg">
<path d="M11.6665 28.3334V21.6667" stroke="#7D2CE0" stroke-width="2.5" stroke-linecap="round"/>
<path d="M20 28.3334V11.6667" stroke="#7D2CE0" stroke-width="2.5" stroke-linecap="round"/>
<path d="M28.3335 28.3333V18.3333" stroke="#7D2CE0" stroke-width="2.5" stroke-linecap="round"/>
<path d="M4.1665 20C4.1665 12.5361 4.1665 8.80417 6.48524 6.48542C8.80399 4.16669 12.5359 4.16669 19.9998 4.16669C27.4637 4.16669 31.1957 4.16669 33.5145 6.48542C35.8332 8.80417 35.8332 12.5361 35.8332 20C35.8332 27.4639 35.8332 31.1959 33.5145 33.5147C31.1957 35.8334 27.4637 35.8334 19.9998 35.8334C12.5359 35.8334 8.80399 35.8334 6.48524 33.5147C4.1665 31.1959 4.1665 27.4639 4.1665 20Z" stroke="#7D2CE0" stroke-width="2.5" stroke-linejoin="round"/>
</svg>
