<svg width="40" height="40" viewBox="0 0 40 40" fill="none" xmlns="http://www.w3.org/2000/svg">
<path d="M8.3335 22.5H5.00016C4.0797 22.5 3.3335 23.2462 3.3335 24.1667V35C3.3335 35.9205 4.0797 36.6667 5.00016 36.6667H8.3335C9.25396 36.6667 10.0002 35.9205 10.0002 35V24.1667C10.0002 23.2462 9.25396 22.5 8.3335 22.5Z" stroke="#7D2CE0" stroke-width="2.5" stroke-linecap="round" stroke-linejoin="round"/>
<path d="M10 24.1667H19.5833C20.734 24.1667 21.6667 25.0994 21.6667 26.25C21.6667 27.4007 20.734 28.3334 19.5833 28.3334H15.8333" stroke="#7D2CE0" stroke-width="2.5" stroke-linecap="round" stroke-linejoin="round"/>
<path d="M18.3333 28.333H24.4862C25.9028 28.333 27.2828 27.8816 28.4257 27.0445L32.806 23.8358C33.7582 23.0973 35.113 23.1813 35.966 24.032C36.9557 25.0186 36.888 26.638 35.8197 27.5393L28.4918 33.5036C27.3028 34.4713 25.8167 34.9996 24.2835 34.9996H10" stroke="#7D2CE0" stroke-width="2.5" stroke-linecap="round" stroke-linejoin="round"/>
<path d="M31.6667 11.6666C31.6667 16.2689 27.9357 20 23.3333 20C18.731 20 15 16.2689 15 11.6666C15 7.06426 18.731 3.33331 23.3333 3.33331C27.9357 3.33331 31.6667 7.06426 31.6667 11.6666Z" stroke="#7D2CE0" stroke-width="2.5" stroke-linecap="round" stroke-linejoin="round"/>
</svg>
