<svg width="40" height="40" viewBox="0 0 40 40" fill="none" xmlns="http://www.w3.org/2000/svg">
<path d="M20.0002 36.6666C29.2049 36.6666 36.6668 29.2047 36.6668 20C36.6668 10.7952 29.2049 3.33331 20.0002 3.33331C10.7954 3.33331 3.3335 10.7952 3.3335 20C3.3335 29.2047 10.7954 36.6666 20.0002 36.6666Z" stroke="#7D2CE0" stroke-width="2.5" stroke-linecap="round" stroke-linejoin="round"/>
<path d="M13.3335 25C14.8537 27.024 17.274 28.3333 20.0002 28.3333C22.7263 28.3333 25.1467 27.024 26.6668 25" stroke="#7D2CE0" stroke-width="2.5" stroke-linecap="round" stroke-linejoin="round"/>
<path d="M25.0002 13.3333C25.0002 13.3333 23.3335 15 23.3335 16.6666C24.5835 15 27.0835 15 28.3335 16.6666" stroke="#7D2CE0" stroke-width="2.5" stroke-linecap="round" stroke-linejoin="round"/>
<path d="M14.9998 13.3333C14.9998 13.3333 16.6665 15 16.6665 16.6666C15.4165 15 12.9165 15 11.6665 16.6666" stroke="#7D2CE0" stroke-width="2.5" stroke-linecap="round" stroke-linejoin="round"/>
</svg>
