<svg width="40" height="40" viewBox="0 0 40 40" fill="none" xmlns="http://www.w3.org/2000/svg">
<path d="M35.9068 18.4083C36.4135 19.1188 36.6668 19.4741 36.6668 20C36.6668 20.5258 36.4135 20.8811 35.9068 21.5916C33.63 24.7843 27.8155 31.6666 20.0002 31.6666C12.1848 31.6666 6.37033 24.7843 4.09356 21.5916C3.58685 20.8811 3.3335 20.5258 3.3335 20C3.3335 19.4741 3.58685 19.1188 4.09356 18.4083C6.37033 15.2157 12.1848 8.33331 20.0002 8.33331C27.8155 8.33331 33.63 15.2157 35.9068 18.4083Z" stroke="#7D2CE0" stroke-width="2.5"/>
<path d="M25 20C25 17.2385 22.7615 15 20 15C17.2385 15 15 17.2385 15 20C15 22.7615 17.2385 25 20 25C22.7615 25 25 22.7615 25 20Z" stroke="#7D2CE0" stroke-width="2.5"/>
</svg>
