<svg width="40" height="40" viewBox="0 0 40 40" fill="none" xmlns="http://www.w3.org/2000/svg">
<path d="M4.2991 14.3751C4.18127 13.3921 4.12235 12.9007 4.20522 12.4983C4.44167 11.3503 5.45168 10.4193 6.79768 10.1088C7.26937 10 7.8615 10 9.04578 10H30.9538C32.1382 10 32.7303 10 33.202 10.1088C34.548 10.4193 35.558 11.3503 35.7945 12.4983C35.8773 12.9007 35.8183 13.3921 35.7005 14.3751C35.4305 16.6278 34.165 17.86 31.7518 18.5705L24.7998 20.6172C22.4233 21.3168 21.235 21.6667 19.9998 21.6667C18.7647 21.6667 17.5763 21.3168 15.1998 20.6172L8.24787 18.5705C5.83473 17.8602 4.56917 16.6278 4.2991 14.3751Z" stroke="#7D2CE0" stroke-width="2.5"/>
<path d="M5.77138 17.5L5.4443 21.2928C4.85802 28.0917 4.56487 31.4912 6.44557 33.6623C8.32627 35.8333 11.5642 35.8333 18.04 35.8333H21.96C28.4358 35.8333 31.6737 35.8333 33.5545 33.6623C35.4352 31.4912 35.142 28.0917 34.5557 21.2928L34.2287 17.5" stroke="#7D2CE0" stroke-width="2.5" stroke-linecap="round" stroke-linejoin="round"/>
<path d="M25.8332 9.16669L25.7043 8.72517C25.0627 6.5251 24.7418 5.42507 23.978 4.79589C23.2142 4.16669 22.1997 4.16669 20.1703 4.16669H19.8293C17.8 4.16669 16.7855 4.16669 16.0217 4.79589C15.2578 5.42507 14.937 6.5251 14.2953 8.72517L14.1665 9.16669" stroke="#7D2CE0" stroke-width="2.5"/>
</svg>
